<?xml version="1.0" encoding="utf-8"?>
<!-- Generator: Adobe Illustrator 22.0.1, SVG Export Plug-In . SVG Version: 6.00 Build 0)  -->
<svg version="1.1" id="Layer_1" xmlns="http://www.w3.org/2000/svg" xmlns:xlink="http://www.w3.org/1999/xlink" x="0px" y="0px"
	 viewBox="0 0 31.1 31.3" style="enable-background:new 0 0 31.1 31.3;" xml:space="preserve">
<style type="text/css">
	.st0{fill:#FFFFFF;}
	.st1{fill:#F5841F;}
</style>
<g>
	<g>
		<path class="st0" d="M1.2,28.4v2.1H0.7v-4.9H2c0.6,0,1.1,0.1,1.3,0.3c0.3,0.2,0.4,0.6,0.4,1c0,0.7-0.3,1.1-1,1.3l1.3,2.2H3.5
			l-1.2-2.1H1.2z M1.2,27.9H2c0.4,0,0.7-0.1,0.9-0.2s0.3-0.4,0.3-0.7c0-0.3-0.1-0.6-0.3-0.7C2.7,26,2.4,26,2,26H1.2V27.9z"/>
		<path class="st0" d="M6.4,30.5c-0.5,0-1-0.2-1.3-0.5c-0.3-0.3-0.5-0.8-0.5-1.4c0-0.6,0.1-1.1,0.4-1.4c0.3-0.4,0.7-0.5,1.2-0.5
			c0.5,0,0.8,0.2,1.1,0.5c0.3,0.3,0.4,0.7,0.4,1.2v0.4H5.2c0,0.4,0.1,0.8,0.3,1S6.1,30,6.4,30c0.4,0,0.8-0.1,1.2-0.3v0.5
			c-0.2,0.1-0.4,0.1-0.6,0.2C6.9,30.5,6.7,30.5,6.4,30.5z M6.3,27.1c-0.3,0-0.5,0.1-0.7,0.3c-0.2,0.2-0.3,0.5-0.3,0.8h1.9
			c0-0.4-0.1-0.6-0.2-0.8C6.8,27.2,6.6,27.1,6.3,27.1z"/>
		<path class="st0" d="M10.2,30.5c-0.5,0-1-0.2-1.2-0.5c-0.3-0.3-0.4-0.8-0.4-1.4c0-0.6,0.1-1.1,0.4-1.4c0.3-0.3,0.7-0.5,1.3-0.5
			c0.2,0,0.4,0,0.5,0.1c0.2,0,0.3,0.1,0.4,0.1L11,27.3c-0.1,0-0.3-0.1-0.4-0.1s-0.3,0-0.4,0c-0.8,0-1.1,0.5-1.1,1.4
			c0,0.5,0.1,0.8,0.3,1c0.2,0.2,0.5,0.4,0.8,0.4c0.3,0,0.6-0.1,1-0.2v0.5C10.9,30.4,10.6,30.5,10.2,30.5z"/>
		<path class="st0" d="M12,25.7c0-0.1,0-0.2,0.1-0.3c0.1-0.1,0.1-0.1,0.2-0.1c0.1,0,0.2,0,0.2,0.1c0.1,0.1,0.1,0.2,0.1,0.3
			c0,0.1,0,0.2-0.1,0.3c-0.1,0.1-0.1,0.1-0.2,0.1c-0.1,0-0.2,0-0.2-0.1C12,25.9,12,25.8,12,25.7z M12.6,30.4H12v-3.7h0.6V30.4z"/>
		<path class="st0" d="M15.4,30.5c-0.5,0-1-0.2-1.3-0.5c-0.3-0.3-0.5-0.8-0.5-1.4c0-0.6,0.1-1.1,0.4-1.4c0.3-0.4,0.7-0.5,1.2-0.5
			c0.5,0,0.8,0.2,1.1,0.5c0.3,0.3,0.4,0.7,0.4,1.2v0.4h-2.6c0,0.4,0.1,0.8,0.3,1S15,30,15.4,30c0.4,0,0.8-0.1,1.2-0.3v0.5
			c-0.2,0.1-0.4,0.1-0.6,0.2C15.8,30.5,15.6,30.5,15.4,30.5z M15.2,27.1c-0.3,0-0.5,0.1-0.7,0.3c-0.2,0.2-0.3,0.5-0.3,0.8h1.9
			c0-0.4-0.1-0.6-0.2-0.8C15.7,27.2,15.5,27.1,15.2,27.1z"/>
		<path class="st0" d="M20.2,30.4V28c0-0.3-0.1-0.5-0.2-0.7c-0.1-0.1-0.4-0.2-0.6-0.2c-0.4,0-0.7,0.1-0.9,0.3
			c-0.2,0.2-0.3,0.6-0.3,1v1.9h-0.6v-3.7h0.5l0.1,0.5h0c0.1-0.2,0.3-0.3,0.5-0.4c0.2-0.1,0.4-0.2,0.7-0.2c0.4,0,0.8,0.1,1,0.3
			c0.2,0.2,0.3,0.6,0.3,1v2.4H20.2z"/>
		<path class="st0" d="M23.1,30c0.1,0,0.2,0,0.3,0s0.2,0,0.2,0v0.4c-0.1,0-0.2,0.1-0.3,0.1c-0.1,0-0.2,0-0.3,0
			c-0.7,0-1.1-0.4-1.1-1.1v-2.2h-0.5v-0.3l0.5-0.2l0.2-0.8h0.3v0.9h1.1v0.4h-1.1v2.2c0,0.2,0.1,0.4,0.2,0.5C22.8,30,22.9,30,23.1,30
			z"/>
		<path class="st0" d="M25.9,30.5c-0.5,0-1-0.2-1.3-0.5c-0.3-0.3-0.5-0.8-0.5-1.4c0-0.6,0.1-1.1,0.4-1.4c0.3-0.4,0.7-0.5,1.2-0.5
			c0.5,0,0.8,0.2,1.1,0.5c0.3,0.3,0.4,0.7,0.4,1.2v0.4h-2.6c0,0.4,0.1,0.8,0.3,1S25.6,30,26,30c0.4,0,0.8-0.1,1.2-0.3v0.5
			c-0.2,0.1-0.4,0.1-0.6,0.2C26.4,30.5,26.2,30.5,25.9,30.5z M25.8,27.1c-0.3,0-0.5,0.1-0.7,0.3c-0.2,0.2-0.3,0.5-0.3,0.8h1.9
			c0-0.4-0.1-0.6-0.2-0.8C26.3,27.2,26.1,27.1,25.8,27.1z"/>
		<path class="st0" d="M30.6,29.4c0,0.3-0.1,0.6-0.4,0.8c-0.3,0.2-0.6,0.3-1.1,0.3c-0.5,0-0.9-0.1-1.1-0.2v-0.5
			c0.2,0.1,0.4,0.2,0.6,0.2C28.8,30,29,30,29.2,30c0.3,0,0.5,0,0.7-0.1c0.2-0.1,0.2-0.2,0.2-0.4c0-0.1-0.1-0.3-0.2-0.4
			c-0.1-0.1-0.4-0.2-0.7-0.4c-0.3-0.1-0.6-0.2-0.7-0.3c-0.1-0.1-0.3-0.2-0.3-0.3c-0.1-0.1-0.1-0.3-0.1-0.4c0-0.3,0.1-0.5,0.4-0.7
			s0.6-0.3,1-0.3c0.4,0,0.8,0.1,1.2,0.2l-0.2,0.5c-0.4-0.2-0.7-0.2-1-0.2c-0.3,0-0.5,0-0.6,0.1c-0.1,0.1-0.2,0.2-0.2,0.3
			c0,0.1,0,0.2,0.1,0.3s0.1,0.1,0.2,0.2c0.1,0.1,0.3,0.2,0.6,0.3c0.4,0.2,0.7,0.3,0.9,0.5C30.6,29,30.6,29.2,30.6,29.4z"/>
		<path class="st0" d="M0,31.1v-0.3h31v0.3H0z"/>
	</g>
	<g>
		<g>
			<path class="st1" d="M26.3,11.5c0-5.4-4.4-9.8-9.8-9.8s-9.8,4.4-9.8,9.8c0,2.7,1.1,5.2,3,7c0.2,0.2,0.3,0.5,0.2,0.8l-0.6,1.9
				l2.4-0.9c0.1,0,0.2-0.1,0.3-0.1c0.1,0,0.2,0,0.3,0.1c1.3,0.6,2.7,0.9,4.1,0.9C21.9,21.3,26.3,16.9,26.3,11.5z"/>
			<path class="st0" d="M16.5,0C10.2,0,5,5.2,5,11.5c0,3,1.1,5.7,3.1,7.9l-0.9,3c-0.1,0.3,0,0.6,0.2,0.8c0.2,0.1,0.4,0.2,0.6,0.2
				c0.1,0,0.2,0,0.3-0.1L12,22c1.4,0.6,2.9,0.9,4.5,0.9c6.3,0,11.5-5.1,11.5-11.5S22.8,0,16.5,0z M12.4,20.4
				c-0.1-0.1-0.2-0.1-0.3-0.1c-0.1,0-0.2,0-0.3,0.1l-2.4,0.9l0.6-1.9c0.1-0.3,0-0.6-0.2-0.8c-1.9-1.9-3-4.4-3-7
				c0-5.4,4.4-9.8,9.8-9.8s9.8,4.4,9.8,9.8s-4.4,9.8-9.8,9.8C15.1,21.3,13.7,21,12.4,20.4z"/>
		</g>
		<path class="st0" d="M16.5,2.7c-4.8,0-8.7,3.9-8.7,8.7c0,4.8,3.9,8.7,8.6,8.7c4.8,0,8.7-3.9,8.7-8.7C25.1,6.5,21.3,2.7,16.5,2.7z
			 M22.3,12c-0.5,0-0.9,0-1.4,0c-1.6,0-3.1,0-4.7,0c-0.2,0-0.4,0-0.6-0.2c-0.1-0.1-0.2-0.3-0.2-0.5c0-1.4,0-2.9,0-4.3
			c0-0.8,0-1.6,0-2.4c0-0.4,0.2-0.6,0.6-0.7c0.4-0.1,0.8,0.1,0.9,0.5c0,0.1,0,0.2,0,0.3c0,1.9,0,3.7,0,5.6c0,0.1,0,0.1,0,0.2
			c0.1,0,0.2,0,0.2,0c1.7,0,3.3,0,5,0c0.3,0,0.6,0.1,0.7,0.4c0.1,0.3,0.1,0.7-0.2,0.9C22.6,12,22.5,12,22.3,12z"/>
	</g>
</g>
</svg>
