<?xml version="1.0" encoding="utf-8"?>
<!-- Generator: Adobe Illustrator 22.0.1, SVG Export Plug-In . SVG Version: 6.00 Build 0)  -->
<svg version="1.1" id="Layer_1" xmlns="http://www.w3.org/2000/svg" xmlns:xlink="http://www.w3.org/1999/xlink" x="0px" y="0px"
	 viewBox="0 0 35 30.8" style="enable-background:new 0 0 35 30.8;" xml:space="preserve">
<style type="text/css">
	.st0{fill:#FFFFFF;}
	.st1{fill:#F5841F;}
</style>
<g>
	<g>
		<path class="st0" d="M4.5,30.1H3.9L1.2,26h0c0,0.5,0.1,0.9,0.1,1.3v2.8H0.7v-4.9h0.6L4,29.3h0c0-0.1,0-0.3,0-0.6
			c0-0.3,0-0.6,0-0.7v-2.8h0.5V30.1z"/>
		<path class="st0" d="M7.4,30.2c-0.5,0-1-0.2-1.3-0.5c-0.3-0.3-0.5-0.8-0.5-1.4c0-0.6,0.1-1.1,0.4-1.4c0.3-0.4,0.7-0.5,1.2-0.5
			c0.5,0,0.8,0.2,1.1,0.5c0.3,0.3,0.4,0.7,0.4,1.2v0.4H6.2c0,0.4,0.1,0.8,0.3,1s0.5,0.3,0.9,0.3c0.4,0,0.8-0.1,1.2-0.3V30
			C8.4,30,8.2,30.1,8,30.1C7.8,30.2,7.6,30.2,7.4,30.2z M7.2,26.8c-0.3,0-0.5,0.1-0.7,0.3c-0.2,0.2-0.3,0.5-0.3,0.8h1.9
			c0-0.4-0.1-0.6-0.2-0.8C7.7,26.9,7.5,26.8,7.2,26.8z"/>
		<path class="st0" d="M12.7,30.1L12,28c0-0.1-0.1-0.4-0.2-0.9h0c-0.1,0.4-0.2,0.7-0.2,0.9l-0.7,2.2h-0.6l-1-3.7h0.6
			c0.2,0.9,0.4,1.6,0.5,2.1c0.1,0.5,0.2,0.8,0.2,1h0c0-0.1,0.1-0.3,0.1-0.5s0.1-0.4,0.1-0.5l0.7-2.1h0.6l0.7,2.1
			c0.1,0.4,0.2,0.7,0.3,1h0c0-0.1,0-0.2,0.1-0.4c0-0.2,0.3-1.1,0.7-2.7h0.6l-1,3.7H12.7z"/>
		<path class="st0" d="M17.5,29.1c0,0.3-0.1,0.6-0.4,0.8c-0.3,0.2-0.6,0.3-1.1,0.3c-0.5,0-0.9-0.1-1.1-0.2v-0.5
			c0.2,0.1,0.4,0.2,0.6,0.2c0.2,0.1,0.4,0.1,0.6,0.1c0.3,0,0.5,0,0.7-0.1c0.2-0.1,0.2-0.2,0.2-0.4c0-0.1-0.1-0.3-0.2-0.4
			c-0.1-0.1-0.4-0.2-0.7-0.4c-0.3-0.1-0.6-0.2-0.7-0.3C15.1,28,15,27.9,15,27.8c-0.1-0.1-0.1-0.3-0.1-0.4c0-0.3,0.1-0.5,0.4-0.7
			s0.6-0.3,1-0.3c0.4,0,0.8,0.1,1.2,0.2l-0.2,0.5c-0.4-0.2-0.7-0.2-1-0.2c-0.3,0-0.5,0-0.6,0.1c-0.1,0.1-0.2,0.2-0.2,0.3
			c0,0.1,0,0.2,0.1,0.3s0.1,0.1,0.2,0.2c0.1,0.1,0.3,0.2,0.6,0.3c0.4,0.2,0.7,0.3,0.9,0.5C17.4,28.7,17.5,28.9,17.5,29.1z"/>
		<path class="st0" d="M19,30.1h-0.6v-5.3H19V30.1z"/>
		<path class="st0" d="M21.7,30.2c-0.5,0-1-0.2-1.3-0.5c-0.3-0.3-0.5-0.8-0.5-1.4c0-0.6,0.1-1.1,0.4-1.4c0.3-0.4,0.7-0.5,1.2-0.5
			c0.5,0,0.8,0.2,1.1,0.5c0.3,0.3,0.4,0.7,0.4,1.2v0.4h-2.6c0,0.4,0.1,0.8,0.3,1s0.5,0.3,0.9,0.3c0.4,0,0.8-0.1,1.2-0.3V30
			c-0.2,0.1-0.4,0.1-0.6,0.2C22.2,30.2,22,30.2,21.7,30.2z M21.6,26.8c-0.3,0-0.5,0.1-0.7,0.3c-0.2,0.2-0.3,0.5-0.3,0.8h1.9
			c0-0.4-0.1-0.6-0.2-0.8C22.1,26.9,21.9,26.8,21.6,26.8z"/>
		<path class="st0" d="M25.2,29.7c0.1,0,0.2,0,0.3,0s0.2,0,0.2,0v0.4c-0.1,0-0.2,0.1-0.3,0.1c-0.1,0-0.2,0-0.3,0
			c-0.7,0-1.1-0.4-1.1-1.1v-2.2h-0.5v-0.3l0.5-0.2l0.2-0.8h0.3v0.9h1.1v0.4h-1.1V29c0,0.2,0.1,0.4,0.2,0.5
			C24.9,29.7,25,29.7,25.2,29.7z"/>
		<path class="st0" d="M27.7,29.7c0.1,0,0.2,0,0.3,0s0.2,0,0.2,0v0.4c-0.1,0-0.2,0.1-0.3,0.1c-0.1,0-0.2,0-0.3,0
			c-0.7,0-1.1-0.4-1.1-1.1v-2.2H26v-0.3l0.5-0.2l0.2-0.8h0.3v0.9h1.1v0.4h-1.1V29c0,0.2,0.1,0.4,0.2,0.5
			C27.3,29.7,27.5,29.7,27.7,29.7z"/>
		<path class="st0" d="M30.5,30.2c-0.5,0-1-0.2-1.3-0.5c-0.3-0.3-0.5-0.8-0.5-1.4c0-0.6,0.1-1.1,0.4-1.4c0.3-0.4,0.7-0.5,1.2-0.5
			c0.5,0,0.8,0.2,1.1,0.5c0.3,0.3,0.4,0.7,0.4,1.2v0.4h-2.6c0,0.4,0.1,0.8,0.3,1s0.5,0.3,0.9,0.3c0.4,0,0.8-0.1,1.2-0.3V30
			c-0.2,0.1-0.4,0.1-0.6,0.2C30.9,30.2,30.7,30.2,30.5,30.2z M30.3,26.8c-0.3,0-0.5,0.1-0.7,0.3c-0.2,0.2-0.3,0.5-0.3,0.8h1.9
			c0-0.4-0.1-0.6-0.2-0.8C30.8,26.9,30.6,26.8,30.3,26.8z"/>
		<path class="st0" d="M34.5,26.4c0.2,0,0.3,0,0.4,0l-0.1,0.5c-0.2,0-0.3-0.1-0.4-0.1c-0.3,0-0.6,0.1-0.8,0.4s-0.3,0.5-0.3,0.9v2
			h-0.6v-3.7h0.5l0.1,0.7h0c0.1-0.2,0.3-0.4,0.5-0.6C34,26.4,34.3,26.4,34.5,26.4z"/>
		<path class="st0" d="M0,30.8v-0.3h35v0.3H0z"/>
	</g>
	<g>
		<g>
			<g>
				<g>
					<path class="st1" d="M26.6,11.5c0-5.4-4.4-9.8-9.8-9.8S7,6.1,7,11.5c0,2.7,1.1,5.2,3,7c0.2,0.2,0.3,0.5,0.2,0.8l-0.6,1.9
						l2.4-0.9c0.1,0,0.2-0.1,0.3-0.1c0.1,0,0.2,0,0.3,0.1c1.3,0.6,2.7,0.9,4.1,0.9C22.2,21.3,26.6,16.9,26.6,11.5z"/>
				</g>
				<path class="st0" d="M16.8,0C10.5,0,5.3,5.1,5.3,11.5c0,3,1.1,5.7,3.1,7.9l-0.9,3c-0.1,0.3,0,0.6,0.2,0.8
					c0.2,0.1,0.4,0.2,0.6,0.2c0.1,0,0.2,0,0.3-0.1l3.7-1.4c1.4,0.6,2.9,0.9,4.5,0.9c6.3,0,11.5-5.1,11.5-11.5S23.1,0,16.8,0z
					 M12.7,20.4c-0.1-0.1-0.2-0.1-0.3-0.1c-0.1,0-0.2,0-0.3,0.1l-2.4,0.9l0.6-1.9c0.1-0.3,0-0.6-0.2-0.8c-1.9-1.9-3-4.4-3-7
					c0-5.4,4.4-9.8,9.8-9.8s9.8,4.4,9.8,9.8s-4.4,9.8-9.8,9.8C15.4,21.3,14,21,12.7,20.4z"/>
			</g>
			<g>
				<g>
					<path class="st0" d="M11.4,18.1c0-1.2,0-2.3,0-3.5c0,0,0-0.1,0-0.1c-0.6,0-1.2,0-1.8,0c0,0,0,0,0,0c0,0.5,0,1.1,0,1.6
						C10.1,16.9,10.7,17.5,11.4,18.1z"/>
				</g>
				<g>
					<path class="st0" d="M18.6,9.4c0.8,0,1.6,0,2.4,0c0.2,0,0.4-0.1,0.4-0.4c0-0.2-0.2-0.4-0.4-0.4c-0.4,0-0.8,0-1.2,0
						c-0.4,0-0.8,0-1.2,0c-0.2,0-0.4,0.1-0.4,0.4C18.2,9.3,18.4,9.4,18.6,9.4z"/>
				</g>
				<g>
					<path class="st0" d="M9.4,13.7c0.7,0,1.4,0,2.1,0c0-0.1,0-0.1,0-0.2c0-2.2,0-4.3,0-6.5c0-0.3,0.2-0.5,0.5-0.5
						c3.6,0,7.3,0,10.9,0c0.3,0,0.5,0.1,0.5,0.4c0,3.3,0,6.7,0,10c1.4-1.5,2.2-3.5,2.2-5.8c0-4.8-3.9-8.7-8.7-8.7
						c-4.8,0-8.7,3.9-8.7,8.7c0,1.3,0.3,2.5,0.8,3.6c0-0.2,0-0.5,0-0.7C8.9,13.9,9.1,13.7,9.4,13.7z"/>
				</g>
				<g>
					<path class="st0" d="M21.1,16.6c-1.2,0-2.5,0-3.7,0c-1.3,0-2.5,0-3.8,0c-0.2,0-0.4,0.1-0.4,0.4c0,0.2,0.2,0.4,0.4,0.4
						c2.5,0,5,0,7.5,0c0.1,0,0.1,0,0.2,0c0.2-0.1,0.2-0.2,0.2-0.4C21.4,16.7,21.3,16.6,21.1,16.6z"/>
				</g>
				<g>
					<path class="st0" d="M13.6,15.3c1.2,0,2.5,0,3.7,0c0.9,0,1.8,0,2.7,0c0.4,0,0.7,0,1.1,0c0.2,0,0.4-0.2,0.4-0.4
						c0-0.2-0.2-0.3-0.4-0.3c-2.4,0-4.9,0-7.3,0c-0.1,0-0.1,0-0.2,0c-0.2,0-0.3,0.2-0.3,0.4C13.2,15.2,13.4,15.3,13.6,15.3z"/>
				</g>
				<g>
					<path class="st0" d="M18.6,11.2c0.4,0,0.8,0,1.2,0c0.4,0,0.8,0,1.2,0c0.2,0,0.4-0.1,0.4-0.4c0-0.2-0.2-0.4-0.4-0.4
						c-0.8,0-1.6,0-2.4,0c-0.2,0-0.4,0.1-0.4,0.4C18.2,11.1,18.4,11.2,18.6,11.2z"/>
				</g>
				<g>
					<path class="st0" d="M13.6,13.4c1.2,0,2.5,0,3.7,0c0.9,0,1.7,0,2.6,0c0.4,0,0.8,0,1.1,0c0.2,0,0.4-0.2,0.4-0.4
						c0-0.2-0.2-0.3-0.4-0.3c-2.4,0-4.8,0-7.2,0c-0.1,0-0.2,0-0.2,0c-0.2,0-0.3,0.2-0.3,0.4C13.2,13.2,13.4,13.4,13.6,13.4z"/>
				</g>
				<g>
					<g>
						<path class="st0" d="M13.6,11.6c0.6,0,1.2,0,1.7,0c0.6,0,1.2,0,1.7,0c0.3,0,0.4-0.1,0.4-0.4c0-0.8,0-1.6,0-2.4
							c0-0.3-0.1-0.4-0.4-0.4c-1.2,0-2.3,0-3.5,0c-0.3,0-0.4,0.2-0.4,0.4c0,0.8,0,1.6,0,2.4C13.2,11.4,13.4,11.6,13.6,11.6z
							 M13.9,9.1c0.9,0,1.9,0,2.8,0c0,0.6,0,1.2,0,1.8c-1,0-1.9,0-2.8,0C13.9,10.3,13.9,9.7,13.9,9.1z"/>
					</g>
				</g>
				<g>
					<path class="st0" d="M11.4,18.1c0-1.2,0-2.3,0-3.5c0,0,0-0.1,0-0.1c-0.6,0-1.2,0-1.8,0c0,0,0,0,0,0c0,0.5,0,1.1,0,1.6
						C10.1,16.9,10.7,17.5,11.4,18.1z"/>
				</g>
			</g>
		</g>
	</g>
</g>
</svg>
