<?xml version="1.0" encoding="utf-8"?>
<!-- Generator: Adobe Illustrator 22.0.1, SVG Export Plug-In . SVG Version: 6.00 Build 0)  -->
<svg version="1.1" id="Layer_1" xmlns="http://www.w3.org/2000/svg" xmlns:xlink="http://www.w3.org/1999/xlink" x="0px" y="0px"
	 viewBox="0 0 28.1 30.8" style="enable-background:new 0 0 28.1 30.8;" xml:space="preserve">
<style type="text/css">
	.st0{fill:#FFFFFF;}
	.st1{fill:#F5841F;}
</style>
<g>
	<g>
		<path class="st0" d="M3.5,28.8c0,0.4-0.2,0.8-0.5,1c-0.3,0.2-0.7,0.4-1.3,0.4c-0.6,0-1-0.1-1.4-0.2v-0.6c0.2,0.1,0.4,0.2,0.7,0.2
			c0.2,0,0.5,0.1,0.7,0.1c0.4,0,0.7-0.1,0.9-0.2c0.2-0.1,0.3-0.3,0.3-0.6c0-0.2,0-0.3-0.1-0.4s-0.2-0.2-0.3-0.3
			c-0.2-0.1-0.4-0.2-0.7-0.3c-0.5-0.2-0.8-0.4-1-0.6s-0.3-0.5-0.3-0.9c0-0.4,0.1-0.7,0.4-0.9c0.3-0.2,0.7-0.3,1.1-0.3
			c0.5,0,0.9,0.1,1.4,0.3l-0.2,0.5c-0.4-0.2-0.8-0.3-1.2-0.3c-0.3,0-0.5,0.1-0.7,0.2C1.1,26,1,26.1,1,26.4c0,0.2,0,0.3,0.1,0.4
			c0.1,0.1,0.2,0.2,0.3,0.3s0.4,0.2,0.7,0.3C2.6,27.6,3,27.8,3.2,28C3.4,28.2,3.5,28.5,3.5,28.8z"/>
		<path class="st0" d="M4.9,26.4v2.4c0,0.3,0.1,0.5,0.2,0.7c0.1,0.1,0.4,0.2,0.6,0.2c0.4,0,0.7-0.1,0.9-0.3s0.3-0.6,0.3-1v-1.9h0.6
			v3.7H7l-0.1-0.5h0c-0.1,0.2-0.3,0.3-0.5,0.4c-0.2,0.1-0.4,0.1-0.7,0.1c-0.5,0-0.8-0.1-1-0.3c-0.2-0.2-0.3-0.6-0.3-1v-2.4H4.9z"/>
		<path class="st0" d="M11,29.1c0,0.3-0.1,0.6-0.4,0.8c-0.3,0.2-0.6,0.3-1.1,0.3c-0.5,0-0.9-0.1-1.1-0.2v-0.5
			c0.2,0.1,0.4,0.2,0.6,0.2c0.2,0.1,0.4,0.1,0.6,0.1c0.3,0,0.5,0,0.7-0.1c0.2-0.1,0.2-0.2,0.2-0.4c0-0.1-0.1-0.3-0.2-0.4
			c-0.1-0.1-0.4-0.2-0.7-0.4c-0.3-0.1-0.6-0.2-0.7-0.3c-0.1-0.1-0.3-0.2-0.3-0.3c-0.1-0.1-0.1-0.3-0.1-0.4c0-0.3,0.1-0.5,0.4-0.7
			s0.6-0.3,1-0.3c0.4,0,0.8,0.1,1.2,0.2l-0.2,0.5c-0.4-0.2-0.7-0.2-1-0.2c-0.3,0-0.5,0-0.6,0.1C9,27,8.9,27.2,8.9,27.3
			c0,0.1,0,0.2,0.1,0.3s0.1,0.1,0.2,0.2c0.1,0.1,0.3,0.2,0.6,0.3c0.4,0.2,0.7,0.3,0.9,0.5C11,28.7,11,28.9,11,29.1z"/>
		<path class="st0" d="M13.4,30.2c-0.5,0-1-0.2-1.2-0.5c-0.3-0.3-0.4-0.8-0.4-1.4c0-0.6,0.1-1.1,0.4-1.4c0.3-0.3,0.7-0.5,1.3-0.5
			c0.2,0,0.4,0,0.5,0.1c0.2,0,0.3,0.1,0.4,0.1L14.2,27c-0.1,0-0.3-0.1-0.4-0.1s-0.3,0-0.4,0c-0.8,0-1.1,0.5-1.1,1.4
			c0,0.5,0.1,0.8,0.3,1c0.2,0.2,0.5,0.4,0.8,0.4c0.3,0,0.6-0.1,1-0.2V30C14.1,30.1,13.8,30.2,13.4,30.2z"/>
		<path class="st0" d="M16.9,26.4c0.2,0,0.3,0,0.4,0l-0.1,0.5c-0.2,0-0.3-0.1-0.4-0.1c-0.3,0-0.6,0.1-0.8,0.4s-0.3,0.5-0.3,0.9v2
			h-0.6v-3.7h0.5l0.1,0.7h0c0.1-0.2,0.3-0.4,0.5-0.6C16.5,26.4,16.7,26.4,16.9,26.4z"/>
		<path class="st0" d="M18,25.4c0-0.1,0-0.2,0.1-0.3c0.1-0.1,0.1-0.1,0.2-0.1c0.1,0,0.2,0,0.2,0.1c0.1,0.1,0.1,0.2,0.1,0.3
			c0,0.1,0,0.2-0.1,0.3c-0.1,0.1-0.1,0.1-0.2,0.1c-0.1,0-0.2,0-0.2-0.1C18.1,25.6,18,25.5,18,25.4z M18.6,30.1h-0.6v-3.7h0.6V30.1z"
			/>
		<path class="st0" d="M21.6,26.4c0.5,0,0.9,0.2,1.1,0.5s0.4,0.8,0.4,1.4c0,0.6-0.1,1.1-0.4,1.4s-0.6,0.5-1.1,0.5
			c-0.2,0-0.5,0-0.7-0.1c-0.2-0.1-0.4-0.2-0.5-0.4h0l-0.1,0.5h-0.4v-5.3h0.6v1.3c0,0.3,0,0.5,0,0.8h0C20.6,26.5,21,26.4,21.6,26.4z
			 M21.5,26.8c-0.4,0-0.7,0.1-0.8,0.3s-0.3,0.6-0.3,1.1c0,0.5,0.1,0.9,0.3,1.1c0.2,0.2,0.5,0.3,0.8,0.3c0.3,0,0.6-0.1,0.8-0.4
			s0.3-0.6,0.3-1.1c0-0.5-0.1-0.8-0.3-1.1S21.8,26.8,21.5,26.8z"/>
		<path class="st0" d="M24,25.4c0-0.1,0-0.2,0.1-0.3c0.1-0.1,0.1-0.1,0.2-0.1c0.1,0,0.2,0,0.2,0.1c0.1,0.1,0.1,0.2,0.1,0.3
			c0,0.1,0,0.2-0.1,0.3c-0.1,0.1-0.1,0.1-0.2,0.1c-0.1,0-0.2,0-0.2-0.1C24.1,25.6,24,25.5,24,25.4z M24.6,30.1h-0.6v-3.7h0.6V30.1z"
			/>
		<path class="st0" d="M27.5,26.4c0.2,0,0.3,0,0.4,0l-0.1,0.5c-0.2,0-0.3-0.1-0.4-0.1c-0.3,0-0.6,0.1-0.8,0.4s-0.3,0.5-0.3,0.9v2
			h-0.6v-3.7h0.5l0.1,0.7h0c0.1-0.2,0.3-0.4,0.5-0.6C27.1,26.4,27.3,26.4,27.5,26.4z"/>
		<path class="st0" d="M0,30.8v-0.3h28.1v0.3H0z"/>
	</g>
	<g>
		<g>
			<path class="st1" d="M23.8,11.5c0-5.4-4.4-9.8-9.8-9.8s-9.8,4.4-9.8,9.8c0,2.7,1.1,5.2,3,7c0.2,0.2,0.3,0.5,0.2,0.8l-0.6,1.9
				l2.4-0.9c0.1,0,0.2-0.1,0.3-0.1c0.1,0,0.2,0,0.3,0.1c1.3,0.6,2.7,0.9,4.1,0.9C19.4,21.3,23.8,16.9,23.8,11.5z"/>
			<path class="st0" d="M14,0C7.7,0,2.6,5.1,2.6,11.5c0,3,1.1,5.7,3.1,7.9l-0.9,3c-0.1,0.3,0,0.6,0.2,0.8c0.2,0.1,0.4,0.2,0.6,0.2
				c0.1,0,0.2,0,0.3-0.1L9.5,22c1.4,0.6,2.9,0.9,4.5,0.9c6.3,0,11.5-5.1,11.5-11.5S20.3,0,14,0z M9.9,20.4c-0.1-0.1-0.2-0.1-0.3-0.1
				c-0.1,0-0.2,0-0.3,0.1l-2.4,0.9l0.6-1.9c0.1-0.3,0-0.6-0.2-0.8c-1.9-1.9-3-4.4-3-7c0-5.4,4.4-9.8,9.8-9.8s9.8,4.4,9.8,9.8
				s-4.4,9.8-9.8,9.8C12.6,21.3,11.2,21,9.9,20.4z"/>
		</g>
		<g>
			<path class="st0" d="M12.6,14.5c-0.4,0-0.7,0-1.1,0c0-0.1,0-0.1,0-0.1c0-0.3,0-0.7,0-1c0-0.2-0.1-0.3-0.3-0.3c-0.1,0-0.2,0-0.3,0
				c-0.3,0-0.4,0.1-0.4,0.4c0,0.4,0,0.7,0,1.1c-0.1,0-0.1,0-0.2,0c-0.3,0-0.7,0-1,0c-0.2,0-0.3,0.1-0.3,0.3c0,0.1,0,0.3,0,0.4
				c0,0.2,0.1,0.3,0.3,0.3c0.4,0,0.7,0,1.1,0c0,0.1,0,0.1,0,0.2c0,0.3,0,0.7,0,1c0,0.2,0.1,0.3,0.3,0.3c0.1,0,0.2,0,0.3,0
				c0.3,0,0.4-0.1,0.4-0.4c0-0.4,0-0.7,0-1.1c0.1,0,0.1,0,0.2,0c0.3,0,0.7,0,1,0c0.2,0,0.3-0.1,0.3-0.3c0-0.1,0-0.2,0-0.3
				C13,14.6,12.9,14.5,12.6,14.5z"/>
			<path class="st0" d="M13.9,18.4c-0.1,0-0.1,0-0.2,0c0.4-0.4,0.8-0.7,1-1.2c1.2-2,0.6-4.7-1.5-5.9c-0.1-0.1-0.2-0.1-0.2-0.2
				c0,0-0.1-0.1-0.1-0.1c-0.2,0-0.4-0.1-0.5-0.3C12.1,10.3,12,9.8,12,9.3c0-0.3,0.2-0.4,0.5-0.5c0,0,0.1,0,0.1,0c0-0.1,0-0.2,0-0.3
				c0-0.6,0-1.2,0.1-1.8C13,6,13.5,5.6,14.2,5.4c0.2,0,0.5-0.1,0.7-0.1C15,5,15.1,4.8,15.6,4.8c0.9,0,1.8,0.3,2.5,0.9
				c0.5,0.4,0.9,0.9,1,1.5c0.1,0.5,0.1,1,0,1.4c0,0,0,0.1,0,0.1c0.1,0,0.2,0,0.3,0c0.2,0,0.3,0.2,0.4,0.4c0.1,0.3,0,0.6-0.1,0.9
				c0,0.2-0.1,0.3-0.1,0.5c-0.1,0.3-0.3,0.4-0.6,0.4c-0.1,0-0.1,0-0.2,0c0,0.1,0,0.1-0.1,0.2c-0.1,0.4-0.4,0.8-0.7,1.2
				c-0.1,0.1-0.2,0.2-0.3,0.3c-0.3,0.2-0.4,0.5-0.3,0.8c0,0,0,0.1,0,0.1c-0.1,0.4,0.1,0.6,0.5,0.7c0.4,0.2,0.8,0.3,1.2,0.4
				c0.6,0.2,1.1,0.4,1.7,0.7c0.3,0.1,0.5,0.3,0.7,0.5c0.9-1.4,1.4-3,1.4-4.7c0-4.8-3.9-8.7-8.7-8.7c-4.8,0-8.7,3.9-8.7,8.7
				c0,4.8,3.9,8.7,8.6,8.7c1.8,0,3.6-0.6,5-1.5c-0.7,0-1.5,0-2.2,0C15.8,18.4,14.8,18.4,13.9,18.4z M11,18.4c-1.9,0-3.4-1.5-3.4-3.4
				c0-1.8,1.5-3.4,3.3-3.4c1.9,0,3.4,1.5,3.4,3.4C14.4,16.9,12.9,18.4,11,18.4z"/>
		</g>
	</g>
</g>
</svg>
