<?xml version="1.0" encoding="utf-8"?>
<!-- Generator: Adobe Illustrator 22.0.1, SVG Export Plug-In . SVG Version: 6.00 Build 0)  -->
<svg version="1.1" id="Layer_1" xmlns="http://www.w3.org/2000/svg" xmlns:xlink="http://www.w3.org/1999/xlink" x="0px" y="0px"
	 viewBox="0 0 37 31.2" style="enable-background:new 0 0 37 31.2;" xml:space="preserve">
<style type="text/css">
	.st0{fill:#FFFFFF;}
	.st1{fill:#F5841F;}
</style>
<g>
	<g>
		<path class="st0" d="M2.8,30.4H2.2V26H0.6v-0.5h3.7V26H2.8V30.4z"/>
		<path class="st0" d="M6.6,30.5c-0.5,0-1-0.2-1.3-0.5c-0.3-0.3-0.5-0.8-0.5-1.4c0-0.6,0.1-1.1,0.4-1.4c0.3-0.4,0.7-0.5,1.2-0.5
			c0.5,0,0.8,0.2,1.1,0.5c0.3,0.3,0.4,0.7,0.4,1.2v0.4H5.4c0,0.4,0.1,0.8,0.3,1S6.2,30,6.6,30c0.4,0,0.8-0.1,1.2-0.3v0.5
			c-0.2,0.1-0.4,0.1-0.6,0.2C7,30.5,6.8,30.5,6.6,30.5z M6.4,27.1c-0.3,0-0.5,0.1-0.7,0.3c-0.2,0.2-0.3,0.5-0.3,0.8h1.9
			c0-0.4-0.1-0.6-0.2-0.8C6.9,27.2,6.7,27.1,6.4,27.1z"/>
		<path class="st0" d="M11.4,30.4V28c0-0.3-0.1-0.5-0.2-0.7c-0.1-0.1-0.4-0.2-0.6-0.2c-0.4,0-0.7,0.1-0.9,0.3
			c-0.2,0.2-0.3,0.6-0.3,1v1.9H8.9v-3.7h0.5l0.1,0.5h0c0.1-0.2,0.3-0.3,0.5-0.4c0.2-0.1,0.4-0.2,0.7-0.2c0.4,0,0.8,0.1,1,0.3
			c0.2,0.2,0.3,0.6,0.3,1v2.4H11.4z"/>
		<path class="st0" d="M15.7,29.9L15.7,29.9c-0.3,0.4-0.7,0.6-1.2,0.6c-0.5,0-0.9-0.2-1.1-0.5c-0.3-0.3-0.4-0.8-0.4-1.4
			s0.1-1.1,0.4-1.4c0.3-0.3,0.6-0.5,1.1-0.5c0.5,0,0.9,0.2,1.2,0.5h0l0-0.3l0-0.3v-1.5h0.6v5.3h-0.5L15.7,29.9z M14.5,30
			c0.4,0,0.7-0.1,0.8-0.3s0.3-0.5,0.3-1v-0.1c0-0.5-0.1-0.9-0.3-1.1c-0.2-0.2-0.5-0.3-0.8-0.3c-0.3,0-0.6,0.1-0.8,0.4
			s-0.3,0.6-0.3,1.1c0,0.5,0.1,0.8,0.3,1.1C14,29.9,14.2,30,14.5,30z"/>
		<path class="st0" d="M19,30.5c-0.5,0-1-0.2-1.3-0.5c-0.3-0.3-0.5-0.8-0.5-1.4c0-0.6,0.1-1.1,0.4-1.4c0.3-0.4,0.7-0.5,1.2-0.5
			c0.5,0,0.8,0.2,1.1,0.5c0.3,0.3,0.4,0.7,0.4,1.2v0.4h-2.6c0,0.4,0.1,0.8,0.3,1S18.6,30,19,30c0.4,0,0.8-0.1,1.2-0.3v0.5
			c-0.2,0.1-0.4,0.1-0.6,0.2C19.4,30.5,19.2,30.5,19,30.5z M18.8,27.1c-0.3,0-0.5,0.1-0.7,0.3c-0.2,0.2-0.3,0.5-0.3,0.8h1.9
			c0-0.4-0.1-0.6-0.2-0.8C19.3,27.2,19.1,27.1,18.8,27.1z"/>
		<path class="st0" d="M23.8,30.4V28c0-0.3-0.1-0.5-0.2-0.7c-0.1-0.1-0.4-0.2-0.6-0.2c-0.4,0-0.7,0.1-0.9,0.3
			c-0.2,0.2-0.3,0.6-0.3,1v1.9h-0.6v-3.7h0.5l0.1,0.5h0c0.1-0.2,0.3-0.3,0.5-0.4c0.2-0.1,0.4-0.2,0.7-0.2c0.4,0,0.8,0.1,1,0.3
			c0.2,0.2,0.3,0.6,0.3,1v2.4H23.8z"/>
		<path class="st0" d="M27,30.5c-0.5,0-1-0.2-1.2-0.5c-0.3-0.3-0.4-0.8-0.4-1.4c0-0.6,0.1-1.1,0.4-1.4c0.3-0.3,0.7-0.5,1.3-0.5
			c0.2,0,0.4,0,0.5,0.1c0.2,0,0.3,0.1,0.4,0.1l-0.2,0.5c-0.1,0-0.3-0.1-0.4-0.1s-0.3,0-0.4,0c-0.8,0-1.1,0.5-1.1,1.4
			c0,0.5,0.1,0.8,0.3,1c0.2,0.2,0.5,0.4,0.8,0.4c0.3,0,0.6-0.1,1-0.2v0.5C27.7,30.4,27.4,30.5,27,30.5z"/>
		<path class="st0" d="M28.8,25.7c0-0.1,0-0.2,0.1-0.3c0.1-0.1,0.1-0.1,0.2-0.1c0.1,0,0.2,0,0.2,0.1c0.1,0.1,0.1,0.2,0.1,0.3
			c0,0.1,0,0.2-0.1,0.3c-0.1,0.1-0.1,0.1-0.2,0.1c-0.1,0-0.2,0-0.2-0.1C28.8,25.9,28.8,25.8,28.8,25.7z M29.4,30.4h-0.6v-3.7h0.6
			V30.4z"/>
		<path class="st0" d="M32.9,30.4l-0.1-0.5h0c-0.2,0.2-0.4,0.4-0.6,0.5c-0.2,0.1-0.4,0.1-0.7,0.1c-0.4,0-0.7-0.1-0.9-0.3
			c-0.2-0.2-0.3-0.5-0.3-0.8c0-0.7,0.6-1.1,1.8-1.2l0.6,0V28c0-0.3-0.1-0.5-0.2-0.6s-0.3-0.2-0.6-0.2c-0.3,0-0.7,0.1-1,0.3L30.7,27
			c0.2-0.1,0.4-0.2,0.6-0.2c0.2-0.1,0.4-0.1,0.7-0.1c0.4,0,0.8,0.1,1,0.3c0.2,0.2,0.3,0.5,0.3,0.9v2.5H32.9z M31.6,30
			c0.3,0,0.6-0.1,0.8-0.3c0.2-0.2,0.3-0.5,0.3-0.8v-0.3l-0.6,0c-0.4,0-0.8,0.1-1,0.2c-0.2,0.1-0.3,0.3-0.3,0.6
			c0,0.2,0.1,0.4,0.2,0.5C31.2,30,31.4,30,31.6,30z"/>
		<path class="st0" d="M36.8,29.4c0,0.3-0.1,0.6-0.4,0.8c-0.3,0.2-0.6,0.3-1.1,0.3c-0.5,0-0.9-0.1-1.1-0.2v-0.5
			c0.2,0.1,0.4,0.2,0.6,0.2C35,30,35.2,30,35.4,30c0.3,0,0.5,0,0.7-0.1c0.2-0.1,0.2-0.2,0.2-0.4c0-0.1-0.1-0.3-0.2-0.4
			c-0.1-0.1-0.4-0.2-0.7-0.4c-0.3-0.1-0.6-0.2-0.7-0.3c-0.1-0.1-0.3-0.2-0.3-0.3c-0.1-0.1-0.1-0.3-0.1-0.4c0-0.3,0.1-0.5,0.4-0.7
			s0.6-0.3,1-0.3c0.4,0,0.8,0.1,1.2,0.2l-0.2,0.5c-0.4-0.2-0.7-0.2-1-0.2c-0.3,0-0.5,0-0.6,0.1c-0.1,0.1-0.2,0.2-0.2,0.3
			c0,0.1,0,0.2,0.1,0.3S34.9,28,35,28c0.1,0.1,0.3,0.2,0.6,0.3c0.4,0.2,0.7,0.3,0.9,0.5C36.7,29,36.8,29.2,36.8,29.4z"/>
		<path class="st0" d="M0.6,31.1v-0.3h36.5v0.3H0.6z"/>
	</g>
	<g>
		<g>
			<path class="st1" d="M28.7,11.5c0-5.4-4.4-9.8-9.8-9.8S9,6.1,9,11.5c0,2.7,1.1,5.2,3,7c0.2,0.2,0.3,0.5,0.2,0.8l-0.6,1.9l2.4-0.9
				c0.1,0,0.2-0.1,0.3-0.1c0.1,0,0.2,0,0.3,0.1c1.3,0.6,2.7,0.9,4.1,0.9C24.3,21.3,28.7,16.9,28.7,11.5z"/>
			<path class="st0" d="M18.9,0C12.5,0,7.4,5.2,7.4,11.5c0,3,1.1,5.7,3.1,7.9l-0.9,3c-0.1,0.3,0,0.6,0.2,0.8
				c0.2,0.1,0.4,0.2,0.6,0.2c0.1,0,0.2,0,0.3-0.1l3.7-1.4c1.4,0.6,2.9,0.9,4.5,0.9c6.3,0,11.5-5.1,11.5-11.5S25.2,0,18.9,0z
				 M14.7,20.4c-0.1-0.1-0.2-0.1-0.3-0.1c-0.1,0-0.2,0-0.3,0.1l-2.4,0.9l0.6-1.9c0.1-0.3,0-0.6-0.2-0.8c-1.9-1.9-3-4.4-3-7
				c0-5.4,4.4-9.8,9.8-9.8s9.8,4.4,9.8,9.8s-4.4,9.8-9.8,9.8C17.4,21.3,16.1,21,14.7,20.4z"/>
		</g>
		<path class="st0" d="M18.9,2.7c-4.8,0-8.7,3.9-8.7,8.7c0,4.8,3.9,8.7,8.6,8.7c4.8,0,8.7-3.9,8.7-8.7C27.5,6.5,23.6,2.7,18.9,2.7z
			 M22.7,15.6c-0.7,0.9-1.6,1.5-2.7,1.9c-1.5,0.5-2.9,0.2-4.1-0.7c-1-0.7-1.6-1.7-1.9-2.8c-0.2-0.7-0.1-1.5,0.2-2.2
			c0.3-0.7,0.7-1.3,1.2-1.9c0.5-0.6,0.9-1.2,1-1.9c0-0.3,0-0.7,0-1c0,0,0-0.1,0-0.1c0,0,0,0,0,0c0.8,0.9,1,2,0.8,3.1c0,0,0,0,0,0
			c0,0,0.1-0.1,0.1-0.1c0.6-0.8,1-1.6,0.9-2.6c0-0.8-0.3-1.5-0.8-2.1c-0.3-0.4-0.6-0.7-0.9-1.1c-0.1-0.1-0.1-0.1-0.2-0.2
			c0,0,0,0,0-0.1c0.5,0.1,1,0.2,1.4,0.4c1.1,0.4,2.2,1,3,1.9c0.8,0.9,1.2,1.9,1.3,3c0.2,1.2,0,2.4-0.3,3.5c0,0,0,0.1,0,0.1
			c0.2-0.1,0.4-0.2,0.6-0.4c0.4-0.4,0.6-0.9,0.6-1.5c0-0.4,0.1-0.7,0.1-1.1c0-0.1,0-0.1,0-0.2c0,0,0,0,0,0c0.1,0.3,0.3,0.5,0.4,0.8
			c0.3,0.6,0.5,1.3,0.5,2C23.9,13.7,23.5,14.7,22.7,15.6z"/>
	</g>
</g>
</svg>
