<?xml version="1.0" encoding="utf-8"?>
<!-- Generator: Adobe Illustrator 22.0.1, SVG Export Plug-In . SVG Version: 6.00 Build 0)  -->
<svg version="1.1" id="Layer_1" xmlns="http://www.w3.org/2000/svg" xmlns:xlink="http://www.w3.org/1999/xlink" x="0px" y="0px"
	 viewBox="0 0 20.8 20.8" style="enable-background:new 0 0 20.8 20.8;" xml:space="preserve">
<g class="wrapIcon">
<path class="smIcon" d="M10.3-0.1C4.6-0.1,0,4.6,0,10.3C0,16,4.6,20.7,10.3,20.7c5.8,0,10.4-4.6,10.4-10.4C20.7,4.6,16.1-0.1,10.3-0.1z
	 M14.1,6.7l-1.4,0c-0.5,0-0.8,0.1-1,0.3c-0.2,0.2-0.3,0.5-0.3,0.9v1.6H14l-0.3,2.6h-2.2v6.6H8.8v-6.6H6.6V9.6h2.2V7.7
	c0-1.1,0.3-1.9,0.9-2.5c0.6-0.6,1.4-0.9,2.4-0.9c0.8,0,1.5,0,2,0.1V6.7z"/>
</g>
</svg>
