<?xml version="1.0" encoding="utf-8"?>
<!-- Generator: Adobe Illustrator 22.0.1, SVG Export Plug-In . SVG Version: 6.00 Build 0)  -->
<svg version="1.1" id="Layer_1" xmlns="http://www.w3.org/2000/svg" xmlns:xlink="http://www.w3.org/1999/xlink" x="0px" y="0px"
	 viewBox="0 0 20.8 20.8" style="enable-background:new 0 0 20.8 20.8;" xml:space="preserve">
<g class="wrapIcon">
	<path class="smIcon" d="M15.8,8.8c0-0.2,0-0.5,0-0.8c0-0.3,0-0.6-0.1-0.9c0-0.2-0.1-0.4-0.2-0.6C15.4,6.2,15.2,6,15,5.7
		c-0.2-0.2-0.5-0.4-0.8-0.5c-0.2-0.1-0.4-0.1-0.6-0.2C13.4,5,13.1,5,12.8,5c-0.3,0-0.6,0-0.8,0c-0.2,0-0.5,0-0.9,0
		c-0.4,0-0.6,0-0.7,0s-0.3,0-0.7,0C9.3,5,9,5,8.8,5C8.6,5,8.3,5,8,5C7.7,5,7.4,5,7.1,5.1c-0.2,0-0.4,0.1-0.6,0.2
		C6.2,5.4,6,5.5,5.8,5.7C5.5,6,5.4,6.2,5.3,6.5C5.2,6.7,5.1,6.9,5.1,7.1C5.1,7.3,5,7.6,5,8c0,0.3,0,0.6,0,0.8C5,9,5,9.3,5,9.7
		c0,0.4,0,0.6,0,0.7c0,0,0,0.3,0,0.7c0,0.4,0,0.7,0,0.9c0,0.2,0,0.5,0,0.8c0,0.3,0,0.6,0.1,0.9c0,0.2,0.1,0.4,0.2,0.6
		c0.1,0.3,0.3,0.5,0.5,0.8c0.2,0.2,0.5,0.4,0.8,0.5c0.2,0.1,0.4,0.1,0.6,0.2c0.2,0,0.5,0.1,0.9,0.1c0.3,0,0.6,0,0.8,0
		c0.2,0,0.5,0,0.9,0c0.4,0,0.6,0,0.7,0s0.3,0,0.7,0c0.4,0,0.7,0,0.9,0c0.2,0,0.5,0,0.8,0c0.3,0,0.6,0,0.9-0.1c0.2,0,0.4-0.1,0.6-0.2
		c0.3-0.1,0.5-0.3,0.8-0.5c0.2-0.2,0.4-0.5,0.5-0.8c0.1-0.2,0.1-0.4,0.2-0.6c0-0.2,0.1-0.5,0.1-0.9c0-0.3,0-0.6,0-0.8
		c0-0.2,0-0.5,0-0.9c0-0.4,0-0.6,0-0.7c0,0,0-0.3,0-0.7C15.8,9.3,15.8,9,15.8,8.8z M12.8,12.7c-0.7,0.7-1.4,1-2.4,1
		c-0.9,0-1.7-0.3-2.4-1c-0.7-0.7-1-1.4-1-2.4C7,9.4,7.3,8.6,8,8c0.7-0.7,1.4-1,2.4-1c0.9,0,1.7,0.3,2.4,1c0.7,0.7,1,1.4,1,2.4
		C13.7,11.3,13.4,12.1,12.8,12.7z M14.4,7.4c-0.2,0.2-0.3,0.2-0.6,0.2c-0.2,0-0.4-0.1-0.6-0.2c-0.2-0.2-0.2-0.3-0.2-0.6
		c0-0.2,0.1-0.4,0.2-0.6c0.2-0.2,0.3-0.2,0.6-0.2c0.2,0,0.4,0.1,0.6,0.2c0.2,0.2,0.2,0.3,0.2,0.6C14.7,7.1,14.6,7.3,14.4,7.4z"/>
	<path class="smIcon" d="M10.4,8.2c-0.6,0-1.1,0.2-1.5,0.6s-0.6,0.9-0.6,1.5s0.2,1.1,0.6,1.5c0.4,0.4,0.9,0.6,1.5,0.6s1.1-0.2,1.5-0.6
		c0.4-0.4,0.6-0.9,0.6-1.5s-0.2-1.1-0.6-1.5S11,8.2,10.4,8.2z"/>
	<path class="smIcon" d="M10.4,0C4.6,0,0,4.6,0,10.4c0,5.7,4.6,10.4,10.3,10.4c5.8,0,10.4-4.6,10.4-10.4C20.7,4.6,16.1,0,10.4,0z
		 M16.9,13.1c-0.1,1.2-0.4,2.1-1.1,2.8c-0.6,0.6-1.6,1-2.8,1.1c-0.5,0-1.4,0-2.7,0c-1.3,0-2.2,0-2.7,0c-1.2-0.1-2.1-0.4-2.8-1.1
		c-0.6-0.6-1-1.6-1.1-2.8c0-0.5,0-1.4,0-2.7s0-2.2,0-2.7c0.1-1.2,0.4-2.1,1.1-2.8c0.6-0.6,1.6-1,2.8-1.1c0.5,0,1.4,0,2.7,0
		c1.3,0,2.2,0,2.7,0c1.2,0.1,2.1,0.4,2.8,1.1c0.6,0.6,1,1.6,1.1,2.8c0,0.5,0,1.4,0,2.7S16.9,12.6,16.9,13.1z"/>
</g>
</svg>
