<?xml version="1.0" encoding="utf-8"?>
<!-- Generator: Adobe Illustrator 22.0.1, SVG Export Plug-In . SVG Version: 6.00 Build 0)  -->
<svg version="1.1" id="Layer_1" xmlns="http://www.w3.org/2000/svg" xmlns:xlink="http://www.w3.org/1999/xlink" x="0px" y="0px"
	 viewBox="0 0 20.8 20.8" style="enable-background:new 0 0 20.8 20.8;" xml:space="preserve">
<g class="wrapIcon">
<path class="smIcon" d="M10.6-0.1C4.8-0.1,0.2,4.6,0.2,10.3c0,5.7,4.6,10.4,10.3,10.4c5.8,0,10.4-4.6,10.4-10.4
	C20.9,4.6,16.3-0.1,10.6-0.1z M16.5,8.3c0,0.1,0,0.2,0,0.3c0,0.7-0.1,1.4-0.3,2.1c-0.2,0.7-0.5,1.4-0.9,2c-0.4,0.6-0.9,1.2-1.5,1.7
	c-0.6,0.5-1.3,0.9-2.1,1.2c-0.8,0.3-1.7,0.4-2.6,0.4c-1.4,0-2.7-0.4-4-1.2c0.2,0,0.4,0,0.6,0c1.2,0,2.3-0.4,3.2-1.1
	c-0.6,0-1.1-0.2-1.5-0.5c-0.4-0.3-0.7-0.8-0.9-1.3c0.2,0,0.4,0,0.5,0c0.2,0,0.4,0,0.6-0.1c-0.6-0.1-1.1-0.4-1.5-0.9
	c-0.4-0.5-0.6-1-0.6-1.6v0C6,9.5,6.4,9.6,6.8,9.6C6.1,9.1,5.7,8.4,5.7,7.5c0-0.5,0.1-0.9,0.4-1.3C6.7,7,7.5,7.6,8.4,8.1
	c0.9,0.5,1.9,0.7,3,0.8c0-0.2-0.1-0.4-0.1-0.6c0-0.7,0.3-1.3,0.8-1.8c0.5-0.5,1.1-0.8,1.8-0.8c0.8,0,1.4,0.3,1.9,0.8
	c0.6-0.1,1.1-0.3,1.6-0.6c-0.2,0.6-0.6,1.1-1.1,1.4c0.5-0.1,1-0.2,1.5-0.4C17.4,7.4,17,7.9,16.5,8.3z"/>
</g>
</svg>
