<?xml version="1.0" encoding="utf-8"?>
<!-- Generator: Adobe Illustrator 22.0.1, SVG Export Plug-In . SVG Version: 6.00 Build 0)  -->
<svg version="1.1" id="Layer_1" xmlns="http://www.w3.org/2000/svg" xmlns:xlink="http://www.w3.org/1999/xlink" x="0px" y="0px"
	 viewBox="0 0 22.9 23.4" style="enable-background:new 0 0 22.9 23.4;" xml:space="preserve">
<style type="text/css">
	.st0{fill:#F5841F;}
	.st1{fill:#FFFFFF;}
</style>
<g>
	<path class="st0" d="M11.5,1C5.7,1,1,5.7,1,11.5c0,2.7,1,5.2,2.9,7.2L3,21.5c-0.1,0.3,0,0.6,0.2,0.8c0.1,0.1,0.3,0.2,0.5,0.2
		c0.1,0,0.2,0,0.3,0l3.4-1.2C8.7,21.7,10,22,11.5,22C17.3,22,22,17.3,22,11.5S17.3,1,11.5,1z"/>
	<g>
		<path class="st1" d="M11.5,0C5.1,0,0,5.1,0,11.5c0,3,1.1,5.7,3.1,7.9l-0.9,3c-0.1,0.3,0,0.6,0.2,0.8c0.2,0.1,0.4,0.2,0.6,0.2
			c0.1,0,0.2,0,0.3-0.1L7,22c1.4,0.6,2.9,0.9,4.5,0.9c6.3,0,11.5-5.1,11.5-11.5S17.8,0,11.5,0z M7.3,20.4c-0.1-0.1-0.2-0.1-0.3-0.1
			c-0.1,0-0.2,0-0.3,0.1l-2.4,0.9l0.6-1.9c0.1-0.3,0-0.6-0.2-0.8c-1.9-1.9-3-4.4-3-7c0-5.4,4.4-9.8,9.8-9.8s9.8,4.4,9.8,9.8
			s-4.4,9.8-9.8,9.8C10,21.3,8.7,21,7.3,20.4z"/>
	</g>
	<path class="st1" d="M6.1,18.1c0-1.2,0-2.3,0-3.5c0,0,0-0.1,0-0.1c-0.6,0-1.2,0-1.8,0c0,0,0,0,0,0c0,0.5,0,1.1,0,1.6
		C4.8,16.9,5.4,17.5,6.1,18.1z"/>
	<path class="st1" d="M13.3,9.4c0.8,0,1.6,0,2.4,0c0.2,0,0.4-0.1,0.4-0.4c0-0.2-0.2-0.4-0.4-0.4c-0.4,0-0.8,0-1.2,0
		c-0.4,0-0.8,0-1.2,0c-0.2,0-0.4,0.1-0.4,0.4C12.9,9.3,13.1,9.4,13.3,9.4z"/>
	<path class="st1" d="M4,13.7c0.7,0,1.4,0,2.1,0c0-0.1,0-0.1,0-0.2c0-2.2,0-4.3,0-6.5c0-0.3,0.2-0.5,0.5-0.5c3.6,0,7.3,0,10.9,0
		c0.3,0,0.5,0.1,0.5,0.4c0,3.3,0,6.7,0,10c1.4-1.5,2.2-3.5,2.2-5.8c0-4.8-3.9-8.7-8.7-8.7c-4.8,0-8.7,3.9-8.7,8.7
		c0,1.3,0.3,2.5,0.8,3.6c0-0.2,0-0.5,0-0.7C3.6,13.9,3.7,13.7,4,13.7z"/>
	<path class="st1" d="M15.7,16.6c-1.2,0-2.5,0-3.7,0c-1.3,0-2.5,0-3.8,0c-0.2,0-0.4,0.1-0.4,0.4c0,0.2,0.2,0.4,0.4,0.4
		c2.5,0,5,0,7.5,0c0.1,0,0.1,0,0.2,0c0.2-0.1,0.2-0.2,0.2-0.4C16.1,16.7,15.9,16.6,15.7,16.6z"/>
	<path class="st1" d="M8.3,15.3c1.2,0,2.5,0,3.7,0c0.9,0,1.8,0,2.7,0c0.4,0,0.7,0,1.1,0c0.2,0,0.4-0.2,0.4-0.4
		c0-0.2-0.2-0.3-0.4-0.3c-2.4,0-4.9,0-7.3,0c-0.1,0-0.1,0-0.2,0c-0.2,0-0.3,0.2-0.3,0.4C7.9,15.2,8,15.3,8.3,15.3z"/>
	<path class="st1" d="M13.3,11.2c0.4,0,0.8,0,1.2,0c0.4,0,0.8,0,1.2,0c0.2,0,0.4-0.1,0.4-0.4c0-0.2-0.2-0.4-0.4-0.4
		c-0.8,0-1.6,0-2.4,0c-0.2,0-0.4,0.1-0.4,0.4C12.9,11.1,13.1,11.2,13.3,11.2z"/>
	<path class="st1" d="M8.3,13.4c1.2,0,2.5,0,3.7,0c0.9,0,1.7,0,2.6,0c0.4,0,0.8,0,1.1,0c0.2,0,0.4-0.2,0.4-0.4
		c0-0.2-0.2-0.3-0.4-0.3c-2.4,0-4.8,0-7.2,0c-0.1,0-0.2,0-0.2,0c-0.2,0-0.3,0.2-0.3,0.4C7.9,13.2,8,13.4,8.3,13.4z"/>
	<path class="st1" d="M8.3,11.6c0.6,0,1.2,0,1.7,0c0.6,0,1.2,0,1.7,0c0.3,0,0.4-0.1,0.4-0.4c0-0.8,0-1.6,0-2.4
		c0-0.3-0.1-0.4-0.4-0.4c-1.2,0-2.3,0-3.5,0C8,8.4,7.9,8.5,7.9,8.8c0,0.8,0,1.6,0,2.4C7.9,11.4,8,11.6,8.3,11.6z M8.6,9.1
		c0.9,0,1.9,0,2.8,0c0,0.6,0,1.2,0,1.8c-1,0-1.9,0-2.8,0C8.6,10.3,8.6,9.7,8.6,9.1z"/>
	<path class="st1" d="M6.1,18.1c0-1.2,0-2.3,0-3.5c0,0,0-0.1,0-0.1c-0.6,0-1.2,0-1.8,0c0,0,0,0,0,0c0,0.5,0,1.1,0,1.6
		C4.8,16.9,5.4,17.5,6.1,18.1z"/>
</g>
</svg>
