<?xml version="1.0" encoding="utf-8"?>
<!-- Generator: Adobe Illustrator 22.0.1, SVG Export Plug-In . SVG Version: 6.00 Build 0)  -->
<svg version="1.1" id="Layer_1" xmlns="http://www.w3.org/2000/svg" xmlns:xlink="http://www.w3.org/1999/xlink" x="0px" y="0px"
	 viewBox="0 0 22.9 23.2" style="enable-background:new 0 0 22.9 23.2;" xml:space="preserve">
<style type="text/css">
	.st0{fill:#F5841F;}
	.st1{fill:#FFFFFF;}
</style>
<g>
	<path class="st0" d="M11.5,1C5.7,1,0.9,5.6,0.9,11.4c0,2.7,1,5.2,2.9,7.1L3,21.3c-0.1,0.3,0,0.6,0.2,0.8c0.1,0.1,0.3,0.2,0.5,0.2
		c0.1,0,0.2,0,0.3,0l3.4-1.2c1.3,0.6,2.7,0.8,4.1,0.8c5.8,0,10.5-4.7,10.5-10.4S17.3,1,11.5,1z"/>
	<g>
		<path class="st1" d="M11.5,0C5.1,0,0,5.1,0,11.3c0,2.9,1.1,5.7,3.1,7.8l-0.9,3c-0.1,0.3,0,0.6,0.2,0.8c0.2,0.1,0.4,0.2,0.6,0.2
			c0.1,0,0.2,0,0.3-0.1L7,21.8c1.4,0.6,2.9,0.9,4.5,0.9c6.3,0,11.5-5.1,11.5-11.3S17.8,0,11.5,0z M7.3,20.1
			c-0.1-0.1-0.2-0.1-0.3-0.1c-0.1,0-0.2,0-0.3,0.1L4.3,21l0.6-1.9c0.1-0.3,0-0.6-0.2-0.8c-1.9-1.8-3-4.3-3-7c0-5.3,4.4-9.7,9.8-9.7
			s9.8,4.4,9.8,9.7S16.9,21,11.5,21C10,21,8.7,20.7,7.3,20.1z"/>
	</g>
	<path class="st1" d="M10,14.4c-0.4,0-0.7,0-1.1,0c0,0,0-0.1,0-0.1c0-0.3,0-0.7,0-1c0-0.2-0.1-0.3-0.3-0.3c-0.1,0-0.2,0-0.3,0
		C8,12.9,8,13,8,13.3c0,0.3,0,0.7,0,1.1c-0.1,0-0.1,0-0.2,0c-0.3,0-0.7,0-1,0c-0.2,0-0.3,0.1-0.3,0.3c0,0.1,0,0.3,0,0.4
		c0,0.2,0.1,0.3,0.3,0.3c0.4,0,0.7,0,1.1,0c0,0.1,0,0.1,0,0.2c0,0.3,0,0.6,0,1c0,0.2,0.1,0.3,0.3,0.3c0.1,0,0.2,0,0.3,0
		c0.3,0,0.4-0.1,0.4-0.4c0-0.4,0-0.7,0-1.1c0.1,0,0.1,0,0.2,0c0.3,0,0.7,0,1,0c0.2,0,0.3-0.1,0.3-0.3c0-0.1,0-0.2,0-0.3
		C10.4,14.4,10.3,14.4,10,14.4z"/>
	<path class="st1" d="M11.3,18.2c-0.1,0-0.1,0-0.2,0c0.4-0.3,0.8-0.7,1-1.2c1.2-2,0.6-4.7-1.5-5.8c-0.1-0.1-0.2-0.1-0.2-0.2
		c0,0-0.1-0.1-0.1-0.1c-0.2,0-0.4-0.1-0.5-0.3c-0.3-0.4-0.4-0.9-0.4-1.4c0-0.3,0.2-0.4,0.5-0.5c0,0,0.1,0,0.1,0c0-0.1,0-0.2,0-0.3
		c0-0.6,0-1.2,0.1-1.8c0.2-0.7,0.7-1.1,1.5-1.2c0.2,0,0.5-0.1,0.7-0.1c0.1-0.4,0.2-0.5,0.7-0.5c0.9,0,1.8,0.3,2.5,0.8
		c0.5,0.4,0.9,0.9,1,1.5c0.1,0.5,0.1,0.9,0,1.4c0,0,0,0.1,0,0.1c0.1,0,0.2,0,0.3,0c0.2,0,0.3,0.2,0.4,0.4c0.1,0.3,0,0.6-0.1,0.9
		c0,0.2-0.1,0.3-0.1,0.5c-0.1,0.3-0.3,0.4-0.6,0.4c-0.1,0-0.1,0-0.2,0c0,0.1,0,0.1-0.1,0.2c-0.1,0.4-0.4,0.8-0.7,1.1
		c-0.1,0.1-0.2,0.2-0.3,0.3c-0.3,0.2-0.4,0.5-0.3,0.8c0,0,0,0.1,0,0.1c-0.1,0.4,0.1,0.6,0.5,0.7c0.4,0.2,0.8,0.3,1.2,0.4
		c0.6,0.2,1.1,0.4,1.7,0.6c0.3,0.1,0.5,0.3,0.7,0.5c0.9-1.3,1.4-2.9,1.4-4.6c0-4.7-3.9-8.6-8.7-8.6c-4.8,0-8.7,3.8-8.7,8.6
		c0,4.7,3.9,8.6,8.6,8.6c1.8,0,3.6-0.6,5-1.5c-0.7,0-1.5,0-2.2,0C13.2,18.2,12.3,18.2,11.3,18.2z M8.5,18.2c-1.9,0-3.4-1.5-3.4-3.4
		c0-1.8,1.5-3.3,3.3-3.3c1.9,0,3.4,1.5,3.4,3.4C11.8,16.7,10.3,18.2,8.5,18.2z"/>
</g>
</svg>
