<?xml version="1.0" encoding="utf-8"?>
<!-- Generator: Adobe Illustrator 22.0.1, SVG Export Plug-In . SVG Version: 6.00 Build 0)  -->
<svg version="1.1" id="Layer_1" xmlns="http://www.w3.org/2000/svg" xmlns:xlink="http://www.w3.org/1999/xlink" x="0px" y="0px"
	 viewBox="0 0 22.9 23.4" style="enable-background:new 0 0 22.9 23.4;" xml:space="preserve">
<style type="text/css">
	.st0{fill:#F5841F;}
	.st1{fill:#FFFFFF;}
</style>
<g>
	<path class="st0" d="M11.5,0.9C5.6,0.9,0.9,5.6,0.9,11.5c0,2.7,1,5.3,2.9,7.3l-0.8,2.8c-0.1,0.3,0,0.6,0.2,0.8
		c0.1,0.1,0.3,0.2,0.5,0.2c0.1,0,0.2,0,0.3,0l3.4-1.2c1.3,0.6,2.7,0.9,4.1,0.9c5.8,0,10.6-4.7,10.6-10.6S17.3,0.9,11.5,0.9z"/>
	<g>
		<path class="st1" d="M11.5,0C5.1,0,0,5.1,0,11.5c0,3,1.1,5.7,3.1,7.9l-0.9,3c-0.1,0.3,0,0.6,0.2,0.8c0.2,0.1,0.4,0.2,0.6,0.2
			c0.1,0,0.2,0,0.3-0.1L7,22c1.4,0.6,2.9,0.9,4.5,0.9c6.3,0,11.5-5.1,11.5-11.5S17.8,0,11.5,0z M7.3,20.4c-0.1-0.1-0.2-0.1-0.3-0.1
			c-0.1,0-0.2,0-0.3,0.1l-2.4,0.9l0.6-1.9c0.1-0.3,0-0.6-0.2-0.8c-1.9-1.9-3-4.4-3-7c0-5.4,4.4-9.8,9.8-9.8s9.8,4.4,9.8,9.8
			s-4.4,9.8-9.8,9.8C10,21.3,8.7,21,7.3,20.4z"/>
	</g>
	<path class="st1" d="M11.5,2.6c-4.8,0-8.7,3.9-8.7,8.7c0,4.8,3.9,8.7,8.6,8.7c4.8,0,8.7-3.9,8.7-8.7C20.1,6.5,16.2,2.6,11.5,2.6z
		 M15.3,15.6c-0.7,0.9-1.6,1.5-2.7,1.9c-1.5,0.5-2.9,0.2-4.1-0.7c-1-0.7-1.6-1.7-1.9-2.8c-0.2-0.7-0.1-1.5,0.2-2.2
		c0.3-0.7,0.7-1.3,1.2-1.9c0.5-0.6,0.9-1.2,1-1.9c0-0.3,0-0.7,0-1c0,0,0-0.1,0-0.1c0,0,0,0,0,0c0.8,0.9,1,2,0.8,3.1c0,0,0,0,0,0
		c0,0,0.1-0.1,0.1-0.1c0.6-0.8,1-1.6,0.9-2.6c0-0.8-0.3-1.5-0.8-2.1C9.7,4.8,9.4,4.5,9.1,4.1C9,4.1,9,4,8.9,4c0,0,0,0,0-0.1
		c0.5,0.1,1,0.2,1.4,0.4c1.1,0.4,2.2,1,3,1.9c0.8,0.9,1.2,1.9,1.3,3c0.2,1.2,0,2.4-0.3,3.5c0,0,0,0.1,0,0.1c0.2-0.1,0.4-0.2,0.6-0.4
		c0.4-0.4,0.6-0.9,0.6-1.5c0-0.4,0.1-0.7,0.1-1.1c0-0.1,0-0.1,0-0.2c0,0,0,0,0,0c0.1,0.3,0.3,0.5,0.4,0.8c0.3,0.6,0.5,1.3,0.5,2
		C16.5,13.7,16.1,14.7,15.3,15.6z"/>
</g>
</svg>
